<svg width="32" height="32" viewBox="0 0 32 32" fill="none" xmlns="http://www.w3.org/2000/svg">
<path d="M6.78328 16C6.78328 17.815 7.32234 19.5892 8.33228 21.0983C9.34223 22.6073 10.7777 23.7835 12.4572 24.4781C14.1367 25.1726 15.9847 25.3544 17.7676 25.0003C19.5506 24.6462 21.1883 23.7722 22.4737 22.4888C23.7591 21.2055 24.6345 19.5704 24.9891 17.7903C25.3438 16.0102 25.1618 14.1651 24.4661 12.4883C23.7704 10.8115 22.5924 9.37827 21.0809 8.36993C19.5694 7.36159 17.7924 6.82339 15.9745 6.82339C13.5371 6.82428 11.1998 7.79138 9.47632 9.51214C7.75282 11.2329 6.78417 13.5665 6.78328 16ZM16.062 9.22751C17.8842 9.22751 19.6318 9.95023 20.9203 11.2367C22.2088 12.5232 22.9327 14.268 22.9327 16.0873C22.9327 17.9066 22.2088 19.6514 20.9203 20.9379C19.6318 22.2244 17.8842 22.9471 16.062 22.9471V9.22751ZM16.6471 4.93972V0.823167C16.6541 0.717693 16.6393 0.611912 16.6037 0.512375C16.5681 0.412837 16.5123 0.321661 16.44 0.244494C16.3676 0.167327 16.2802 0.105811 16.1831 0.0637551C16.0859 0.0216996 15.9812 0 15.8753 0C15.7694 0 15.6647 0.0216996 15.5676 0.0637551C15.4704 0.105811 15.383 0.167327 15.3106 0.244494C15.2383 0.321661 15.1825 0.412837 15.1469 0.512375C15.1113 0.611912 15.0965 0.717693 15.1035 0.823167V4.93972C15.1164 5.1353 15.2034 5.31865 15.3467 5.45261C15.49 5.58656 15.679 5.66109 15.8753 5.66109C16.0716 5.66109 16.2606 5.58656 16.4039 5.45261C16.5472 5.31865 16.6342 5.1353 16.6471 4.93972ZM27.197 5.75228C27.3324 5.60568 27.4057 5.41249 27.4016 5.21315C27.3976 5.01381 27.3164 4.82377 27.1752 4.68278C27.034 4.5418 26.8437 4.4608 26.644 4.45675C26.4444 4.45269 26.2509 4.52589 26.104 4.66103L23.2017 7.57216C23.0664 7.71876 22.9931 7.91194 22.9971 8.11128C23.0012 8.31062 23.0823 8.50067 23.2235 8.64165C23.3647 8.78264 23.5551 8.86363 23.7547 8.86769C23.9544 8.87174 24.1479 8.79855 24.2947 8.66341L27.197 5.75228ZM27.0524 16.6715H31.1755C31.2812 16.6785 31.3871 16.6637 31.4868 16.6282C31.5865 16.5926 31.6778 16.537 31.7551 16.4647C31.8324 16.3925 31.894 16.3052 31.9361 16.2082C31.9783 16.1112 32 16.0067 32 15.9009C32 15.7952 31.9783 15.6907 31.9361 15.5937C31.894 15.4967 31.8324 15.4094 31.7551 15.3372C31.6778 15.2649 31.5865 15.2093 31.4868 15.1737C31.3871 15.1382 31.2812 15.1234 31.1755 15.1304H27.0524C26.8565 15.1433 26.6729 15.2301 26.5387 15.3732C26.4045 15.5163 26.3299 15.7049 26.3299 15.9009C26.3299 16.097 26.4045 16.2856 26.5387 16.4287C26.6729 16.5718 26.8565 16.6586 27.0524 16.6715ZM23.3228 23.2157C23.2507 23.2872 23.1935 23.3722 23.1544 23.4658C23.1154 23.5595 23.0953 23.6599 23.0953 23.7613C23.0953 23.8628 23.1154 23.9632 23.1544 24.0568C23.1935 24.1505 23.2507 24.2355 23.3228 24.307L26.2386 27.2181C26.384 27.3618 26.5804 27.4425 26.7851 27.4425C26.9897 27.4425 27.1861 27.3618 27.3315 27.2181C27.4036 27.1466 27.4609 27.0616 27.4999 26.968C27.5389 26.8743 27.5591 26.7739 27.5591 26.6725C27.5591 26.571 27.5389 26.4706 27.4999 26.377C27.4609 26.2833 27.4036 26.1983 27.3315 26.1268L24.4158 23.2157C24.3442 23.1437 24.2591 23.0866 24.1653 23.0476C24.0715 23.0086 23.9709 22.9886 23.8693 22.9886C23.7677 22.9886 23.6671 23.0086 23.5733 23.0476C23.4795 23.0866 23.3944 23.1437 23.3228 23.2157ZM15.3019 27.0603V31.1768C15.2949 31.2823 15.3097 31.3881 15.3453 31.4876C15.381 31.5872 15.4367 31.6783 15.509 31.7555C15.5814 31.8327 15.6688 31.8942 15.766 31.9362C15.8631 31.9783 15.9679 32 16.0737 32C16.1796 32 16.2843 31.9783 16.3815 31.9362C16.4786 31.8942 16.5661 31.8327 16.6384 31.7555C16.7108 31.6783 16.7665 31.5872 16.8021 31.4876C16.8377 31.3881 16.8525 31.2823 16.8455 31.1768V27.0603C16.8326 26.8647 16.7457 26.6813 16.6023 26.5474C16.459 26.4134 16.27 26.3389 16.0737 26.3389C15.8774 26.3389 15.6884 26.4134 15.5451 26.5474C15.4018 26.6813 15.3148 26.8647 15.3019 27.0603ZM4.73854 26.2477C4.63103 26.3559 4.55797 26.4934 4.52858 26.643C4.4992 26.7926 4.51479 26.9475 4.5734 27.0882C4.63201 27.2289 4.73102 27.3492 4.85795 27.4338C4.98489 27.5185 5.13407 27.5638 5.28672 27.5639C5.38794 27.5644 5.48823 27.5447 5.58176 27.5061C5.67529 27.4675 5.7602 27.4107 5.83154 27.339L8.74731 24.4278C8.88266 24.2812 8.95597 24.0881 8.95191 23.8887C8.94785 23.6894 8.86672 23.4993 8.72551 23.3583C8.58431 23.2174 8.39396 23.1364 8.1943 23.1323C7.99464 23.1283 7.80115 23.2015 7.65431 23.3366L4.73854 26.2477ZM0 16.0873C0.00088941 16.2915 0.0827757 16.4871 0.227739 16.6312C0.372703 16.7753 0.568938 16.8562 0.773503 16.8562H4.89661C5.0925 16.8433 5.27615 16.7565 5.41032 16.6134C5.54448 16.4703 5.61914 16.2816 5.61914 16.0856C5.61914 15.8896 5.54448 15.7009 5.41032 15.5578C5.27615 15.4148 5.0925 15.3279 4.89661 15.315H0.773503C0.568357 15.315 0.371614 15.3964 0.226554 15.5412C0.0814938 15.6861 0 15.8825 0 16.0873ZM8.62624 8.78429C8.69833 8.71282 8.75555 8.62781 8.79459 8.53417C8.83364 8.44053 8.85374 8.3401 8.85374 8.23866C8.85374 8.13723 8.83364 8.0368 8.79459 7.94315C8.75555 7.84951 8.69833 7.7645 8.62624 7.69303L5.71047 4.7819C5.56363 4.64677 5.37014 4.57357 5.17048 4.57763C4.97083 4.58168 4.78048 4.66268 4.63927 4.80366C4.49806 4.94464 4.41693 5.13469 4.41287 5.33403C4.40881 5.53337 4.48213 5.72656 4.61747 5.87316L7.53324 8.78429C7.6787 8.92803 7.87509 9.00865 8.07974 9.00865C8.28439 9.00865 8.48078 8.92803 8.62624 8.78429Z" fill="#3373E2"/>
</svg>
