<svg xmlns="http://www.w3.org/2000/svg" width="22" height="22" viewBox="0 0 22 22" fill="none">
<g clip-path="url(#clip0_14_1081)">
<path d="M11.0046 16.382C13.7057 16.382 15.8954 14.1923 15.8954 11.4912C15.8954 8.79014 13.7057 6.60046 11.0046 6.60046C8.30351 6.60046 6.11383 8.79014 6.11383 11.4912C6.11383 14.1923 8.30351 16.382 11.0046 16.382Z" fill="#ffffff"/>
<path d="M22 14.0923L17.0514 10.2455L19.8396 4.5732L13.8873 6.04059L11.286 0.343506L8.63811 5.81176L2.5585 4.10147L5.08396 9.69217L0 13.4484L6.06696 15.1466C6.06696 15.1466 5.17676 13.7606 4.95369 12.5625C4.75165 11.4742 5.04482 9.98475 5.10144 9.71801C5.11837 9.67922 5.73061 8.29691 6.48774 7.39292C7.25663 6.47511 8.68576 5.82579 8.68576 5.82579L8.67109 5.82117C8.88175 5.77031 10.1839 5.46961 11.2854 5.46961C12.3139 5.46961 13.4992 5.92465 13.8212 6.05654C13.8223 6.05713 15.0859 6.83582 15.8332 7.772C16.58 8.70735 17.0129 10.3244 17.0129 10.3244L17.0273 10.2931C17.075 10.6142 17.2417 11.9157 17.0059 12.9299C16.7335 14.0957 15.7332 15.4375 15.7332 15.4375L15.7424 15.4364C15.5389 15.6398 14.5731 16.582 13.6153 17.05C12.5392 17.576 10.8674 17.6462 10.8674 17.6462L15.866 21.6565L15.7861 15.4265L22 14.0923Z" fill="#ffffff"/>
<path d="M6.06696 15.1328L6.18506 21.5404L10.8674 17.6462C10.8674 17.6462 9.37647 17.3541 8.28364 16.862C7.19115 16.3723 6.06696 15.1328 6.06696 15.1328Z" fill="#ffffff"/>
</g>
<defs fill="#ffffff">
<clipPath id="clip0_14_1081" fill="#ffffff">
<rect width="22" height="22" fill="white"/>
</clipPath>
</defs>
</svg>